<?xml version="1.0" standalone="no"?><!DOCTYPE svg PUBLIC "-//W3C//DTD SVG 1.1//EN" "http://www.w3.org/Graphics/SVG/1.1/DTD/svg11.dtd"><svg t="1612264063211" class="icon" viewBox="0 0 1024 1024" version="1.1" xmlns="http://www.w3.org/2000/svg" p-id="2210" xmlns:xlink="http://www.w3.org/1999/xlink" width="32" height="32"><defs><style type="text/css"></style></defs><path d="M461.5 405.4c-1.3-4.4-5.3-7.4-9.8-7.4H252.6c-4.4 0-8.2 2.8-9.6 6.9l-27.3 75.9h268.7l-22.9-75.4z" fill="#3784FD" p-id="2211"></path><path d="M864.1 196.6h-704c-41.7 0-75.8 34.1-75.8 75.8v480.2c0 41.7 34.1 75.8 75.8 75.8H864c41.7 0 75.8-34.1 75.8-75.8V272.4c0.1-41.7-34-75.8-75.7-75.8zM559.6 511.9c0 4.1-3.3 7.4-7.4 7.4h-15.7v125.6c0 5-4.1 9.1-9.1 9.1h-47.2c-5.1 0-9.1-4.1-9.1-9.1v-25.5H234.3v25.5c0 5-4.1 9.1-9.1 9.1H178c-5.1 0-9.1-4.1-9.1-9.1V519.3h-17.6c-4.1 0-7.4-3.3-7.4-7.4v-23.7c0-4.1 3.3-7.4 7.4-7.4h17.6l41.8-109c1.5-3.9 5.3-6.5 9.5-6.5h265c4.2 0 8 2.6 9.5 6.5l41.8 109h15.7c4.1 0 7.4 3.3 7.4 7.4v23.7z m279.2 118.7c0 15.8-12.9 28.8-28.8 28.8H707.5c-15.8 0-28.8-12.9-28.8-28.8v-4.8c0-15.8 12.9-28.8 28.8-28.8H810c15.8 0 28.8 12.9 28.8 28.8v4.8z m0-126.3c0 15.8-12.9 28.8-28.8 28.8H667.5c-15.8 0-28.8-12.9-28.8-28.8v-4.8c0-15.8 12.9-28.8 28.8-28.8H810c15.8 0 28.8 12.9 28.8 28.8v4.8z m0-135.2c0 15.8-12.9 28.8-28.8 28.8H627.5c-15.8 0-28.8-12.9-28.8-28.8v-4.8c0-15.8 12.9-28.8 28.8-28.8H810c15.8 0 28.8 12.9 28.8 28.8v4.8z" fill="#3784FD" p-id="2212"></path><path d="M237.2 533.7c-14.9 0-27 12.1-27 27s12.1 27 27 27 27-12.1 27-27-12.1-27-27-27zM463.7 533.7c-14.9 0-27 12.1-27 27s12.1 27 27 27 27-12.1 27-27-12.1-27-27-27z" fill="#3784FD" p-id="2213"></path></svg>