<?xml version="1.0" standalone="no"?><!DOCTYPE svg PUBLIC "-//W3C//DTD SVG 1.1//EN" "http://www.w3.org/Graphics/SVG/1.1/DTD/svg11.dtd"><svg t="1612264103304" class="icon" viewBox="0 0 1439 1024" version="1.1" xmlns="http://www.w3.org/2000/svg" p-id="2856" xmlns:xlink="http://www.w3.org/1999/xlink" width="44.96875" height="32"><defs><style type="text/css"></style></defs><path d="M1164.943306 1024c-151.166762 0-273.872889-122.681844-273.872889-274.771391 0-151.069626 122.706128-274.771391 273.872889-274.77139 152.162398 0 273.897173 123.701764 273.897173 274.77139 0 151.069626-122.754696 274.771391-273.897173 274.771391z m158.59761-213.867577H1200.713369v-76.688295h99.05369v-24.502371H1200.713369v-56.799848h111.46272v-24.866629h-220.472775c5.682413-13.477518 10.174919-26.153671 13.477518-37.97989l-26.615063-4.978183c-12.311895 46.163536-36.450009 82.734965-72.438627 109.714286l17.04724 21.296908a212.240562 212.240562 0 0 0 56.095617-63.186492h95.508253v56.799848H1069.337918v101.190666h-58.572567v24.842345h164.012901v79.189527h25.935117v-79.189527h122.827547v-24.842345z m-228.632138-76.688295h79.869474v76.688295h-79.869474v-76.688295z" fill="#FA7241" p-id="2857"></path><path d="M370.012553 660.398406a79.675204 79.675204 0 0 1 80.015177 79.990894c0 44.439385-35.575792 80.865111-80.015177 79.990894a79.65092 79.65092 0 0 1-79.96661-79.990894 79.65092 79.65092 0 0 1 79.96661-79.990894z m176.03339 63.987858h-64.012142c0-53.327262-50.680326-95.993929-112.021248-95.993929-61.316638 0-111.098463 43.540884-111.098463 95.993929H162.920161v-160.880288l159.107569-32.006071 95.993929-127.975716h128.024284v63.987858h-96.018213l-63.987858 63.987858h160.006071v192.886359z m804.498577-205.99962c-1.384178-1.165623-2.622652-2.501233-4.031113-3.642573a308.768735 308.768735 0 0 0-201.239993-74.357048c-16.73155 0-33.001707 1.699867-49.004743 4.225385v-151.21533H73.070037v587.692658h790.802505a309.982925 309.982925 0 0 0 48.22766 74.065642H-0.024252V220.302789h255.805729V0.072851H1425.144407v613.044963a307.675963 307.675963 0 0 0-55.779928-76.736862 313.57693 313.57693 0 0 0-18.819959-17.994308z m-741.40922 142.011762h239.219883a309.278695 309.278695 0 0 0-12.141909 63.987858h-227.077974v-63.987858z m0-256.874217h287.083286v63.987858H609.1353v-63.987858z m287.083286 162.580156a313.989755 313.989755 0 0 0-19.427054 29.407702H609.1353v-64.012142h287.083286v34.60444z" fill="#FAC400" p-id="2858"></path></svg>