<?xml version="1.0" standalone="no"?><!DOCTYPE svg PUBLIC "-//W3C//DTD SVG 1.1//EN" "http://www.w3.org/Graphics/SVG/1.1/DTD/svg11.dtd"><svg t="1612264127909" class="icon" viewBox="0 0 1024 1024" version="1.1" xmlns="http://www.w3.org/2000/svg" p-id="3105" xmlns:xlink="http://www.w3.org/1999/xlink" width="32" height="32"><defs><style type="text/css"></style></defs><path d="M157.312 191.744v736.234667h656.213333v96H205.312a144.042667 144.042667 0 0 1-143.893333-137.258667l-0.170667-6.784V191.722667zM866.709333 0a96 96 0 0 1 96 96v677.077333a96 96 0 0 1-96 96H221.013333V96.021333a96 96 0 0 1 96-96z m-245.333333 207.744H550.016v44.970667l-8.533333 2.986666a135.018667 135.018667 0 0 0-15.68 7.210667 111.253333 111.253333 0 0 0-28.096 21.482667 94.570667 94.570667 0 0 0-18.026667 28.458666 95.338667 95.338667 0 0 0 19.904 99.861334 163.946667 163.946667 0 0 0 54.357333 33.706666l16 6.954667c10.048 4.458667 18.474667 8.533333 25.216 12.416a111.466667 111.466667 0 0 1 17.856 11.84 27.178667 27.178667 0 0 1 8.256 21.333333 32.746667 32.746667 0 0 1-11.072 26.026667 43.733333 43.733333 0 0 1-30.592 10.666667 44.8 44.8 0 0 1-30.250666-9.194667 92.053333 92.053333 0 0 1-19.84-38.101333l-4.266667-13.610667-79.829333 15.552 3.968 16.298667a146.88 146.88 0 0 0 38.741333 74.496 129.045333 129.045333 0 0 0 62.058667 29.866666v44.8h71.296V608.426667a124.373333 124.373333 0 0 0 56.853333-38.165334 110.72 110.72 0 0 0 26.666667-73.109333 100.416 100.416 0 0 0-30.016-73.088 132.608 132.608 0 0 0-30.058667-22.250667 406.186667 406.186667 0 0 0-37.525333-18.602666l-15.36-6.656a128.170667 128.170667 0 0 1-30.890667-17.066667 16.512 16.512 0 0 1-5.482667-13.034667 18.24 18.24 0 0 1 7.296-15.04 33.6 33.6 0 0 1 22.464-7.146666 42.922667 42.922667 0 0 1 37.802667 25.6l7.722667 13.12 72.277333-37.674667-8.704-14.570667a142.613333 142.613333 0 0 0-36.266667-42.666666 103.061333 103.061333 0 0 0-36.821333-16.618667V207.530667z" fill="#8365FF" p-id="3106"></path></svg>