<?xml version="1.0" standalone="no"?><!DOCTYPE svg PUBLIC "-//W3C//DTD SVG 1.1//EN" "http://www.w3.org/Graphics/SVG/1.1/DTD/svg11.dtd"><svg t="1612264159759" class="icon" viewBox="0 0 1024 1024" version="1.1" xmlns="http://www.w3.org/2000/svg" p-id="3969" xmlns:xlink="http://www.w3.org/1999/xlink" width="32" height="32"><defs><style type="text/css"></style></defs><path d="M940.886016 597.807104c0.917504-0.217088 1.71008-0.398336 2.538496-0.685056 9.718784-3.078144 51.688448-16.234496-1.728512-58.112-40.024064-31.405056-89.696256-32.91648-127.433728-23.41376 0.720896-3.400704 1.13152-6.928384 1.061888-10.616832-0.234496-22.603776-16.576512-40.74496-36.460544-40.512512l-24.49408 0.37888L692.38784 325.946368c6.408192 2.664448 13.353984 4.15744 20.714496 4.15744 1.207296 0 2.410496-0.090112 3.617792-0.161792 0.59392 0.10752 1.006592 0.161792 1.494016 0.161792 4.032512 0 7.37792-3.293184 7.37792-7.34208l0-94.7712c0-4.032512-3.347456-7.288832-7.37792-7.288832-0.487424 0-0.90112 0-1.494016 0.161792-1.207296-0.10752-2.410496-0.161792-3.617792-0.161792-29.855744 0-54.080512 23.954432-54.636544 53.721088-5.003264-9.5744-14.938112-16.144384-26.527744-16.144384-16.500736 0-29.89056 13.3888-29.89056 29.929472 0 1.906688 0.162816 3.832832 0.52224 5.66784l-35.956736 19.18464c-7.954432 4.174848-10.888192 14.071808-6.764544 21.97504 4.228096 7.86432 14.09024 10.94144 22.06208 6.658048l35.273728-18.824192c0 4.283392 0.88064 8.584192 2.752512 12.68736l49.562624 110.931968c-7.23456 3.562496-12.993536 9.916416-15.40608 18.195456l-29.802496 99.95264c-4.425728 14.882816 3.203072 30.449664 17.312768 36.20864l-19.741696 35.95776c-5.955584-4.769792-13.44512-7.650304-21.613568-7.650304l-92.26752 0c-14.954496 0-27.732992 9.701376-32.232448 23.10656l-35.759104 0c6.838272-11.103232 10.778624-23.790592 10.778624-37.307392l0-64.896c0-19.940352-8.584192-38.09792-22.621184-51.991552 14.234624-9.033728 23.4496-23.684096 23.4496-40.221696 0-27.608064-25.664512-50.030592-57.463808-50.030592l-208.9984 0c-31.76448 0-57.4464 22.422528-57.4464 50.030592 0 12.578816 5.397504 24.132608 14.253056 32.897024-33.329152 19.816448-59.856896 51.039232-72.184832 81.399808-11.752448 28.86656-26.077184 53.558272-9.448448 83.575808 10.816512 19.562496 29.694976 32.627712 53.161984 36.371456 1.492992 63.151104 53.072896 113.901568 116.509696 113.901568 63.115264 0 114.495488-50.10432 116.635648-112.676864 8.998912 0 14.415872 0 14.415872 0 1.619968 0 3.329024-0.054272 4.93056-0.145408 3.078144 15.622144 16.934912 27.445248 33.472512 27.445248l229.024768 0c13.749248 0 25.626624-8.097792 30.990336-19.761152l84.603904-153.762816 14.613504-0.21504c-32.969728 41.283584-54.530048 132.2752-54.530048 132.2752 6.981632 0 18.499584 2.89792 33.383424-4.75136 0 0.448512 0 0.935936 0 1.347584 0 64.463872 52.245504 116.672512 116.621312 116.672512 64.425984 0 116.634624-52.20864 116.634624-116.672512C970.7776 645.767168 959.475712 618.466304 940.886016 597.807104zM229.981184 727.794688c-19.8144 0-36.155392-15.154176-38.170624-34.481152 23.648256 0 50.786304 0 76.468224 0C266.3168 712.640512 249.921536 727.794688 229.981184 727.794688zM854.141952 714.225664c-21.270528 0-38.495232-17.258496-38.495232-38.477824 0-21.233664 17.222656-38.404096 38.495232-38.404096 21.182464 0 38.460416 17.170432 38.460416 38.404096C892.601344 696.967168 875.323392 714.225664 854.141952 714.225664z" fill="#00B5AE" p-id="3970"></path></svg>