<?xml version="1.0" standalone="no"?><!DOCTYPE svg PUBLIC "-//W3C//DTD SVG 1.1//EN" "http://www.w3.org/Graphics/SVG/1.1/DTD/svg11.dtd"><svg t="1612264180174" class="icon" viewBox="0 0 1024 1024" version="1.1" xmlns="http://www.w3.org/2000/svg" p-id="4777" xmlns:xlink="http://www.w3.org/1999/xlink" width="32" height="32"><defs><style type="text/css"></style></defs><path d="M750.186468 917.722657c-84.014401 0-152.408194-68.34612-152.408194-152.376412 0-83.99851 68.393793-152.360521 152.408194-152.360521s152.376412 68.362011 152.376412 152.360521C902.56288 849.376536 834.200869 917.722657 750.186468 917.722657L750.186468 917.722657zM750.186468 637.918312c-70.253011 0-127.459714 57.143141-127.459714 127.443824 0 70.221229 57.206704 127.427933 127.459714 127.427933 70.205338 0 127.427933-57.206704 127.427933-127.427933C877.59851 695.045562 820.391806 637.918312 750.186468 637.918312L750.186468 637.918312zM750.186468 637.918312" fill="#1aaba8" p-id="4778"></path><path d="M807.933457 687.688144l-26.23563 0-14.905525 27.50689c-8.263191 15.525264-13.284668 25.790689-15.207449 30.828057l-0.508504 0c-4.179268-9.486778-14.222222-28.937058-30.065301-58.350838l-27.999503 0 37.02545 63.499441-44.494103 0 0 20.594413 52.073991 0 0 28.380881-52.073991 0 0 20.769212 52.073991 0 0 41.300062 25.854252 0 0-41.300062 50.262446 0 0-20.769212-50.278336 0 0-28.380881 50.262446 0 0-20.562632L770.621974 751.203476 807.933457 687.688144 807.933457 687.688144zM807.933457 687.688144" fill="#1aaba8" p-id="4779"></path><path d="M614.765487 412.285537c0 18.878212-15.557045 34.022098-34.737182 34.022098L328.620732 446.307635c-19.180137 0-34.641837-15.143886-34.641837-34.022098L293.978895 232.10031c0-18.814649 15.572936-34.149224 34.641837-34.149224l251.534699 0c19.164246 0 34.737182 15.22334 34.737182 34.149224l0 180.185227L614.765487 412.285537zM910.667163 282.66468c0 0 0.460832-11.155307-12.760273-22.835009-26.02905-22.962135-70.157666-61.115829-83.601241-74.400497-7.563998-7.468653-25.012042-11.759156-36.5964 0.20658-11.059963 11.409559-6.292737 26.346865 1.938672 33.990317 11.600248 10.869274 37.899441 32.385351 52.757294 48.466791-12.394786 15.032651-32.973309 30.875729-45.765363 44.764246-1.668529 1.795655-1.589075 3.861453-1.589075 4.719553 0.127126 7.945376 0.365487 13.507138 0.270143 16.780633-0.095345 2.97157 3.400621 3.988579 4.989696 3.988579l64.977281 0c4.322284 0 5.402855 4.322284 5.402855 4.322284l0 410.489882c0 22.930354-12.649038 30.112973-25.695345 30.112973-12.966853 0-26.903042-7.262073-26.903042-30.112973L808.092365 417.481813c0-30.367225-3.400621-44.20807-38.392055-46.051397-8.612787-0.476723-42.9527-0.079454-61.672005 0L708.028305 157.556797c0-28.285537-23.343513-51.088765-52.089882-51.088765L254.140782 106.468032c-28.762259 0-52.089882 22.819119-52.089882 51.088765l0 685.987834L172.303414 843.544631c-11.886282 0-21.37306 9.391434-21.37306 21.055245l0 30.907511c0 11.679702 9.598014 22.024581 21.37306 22.024581l564.487151 0c11.775047 0 21.388951-10.328988 21.388951-22.024581l0-30.907511c0-11.663811-9.598014-21.055245-21.388951-21.055245l-28.825822 0L707.964742 420.882433l35.881316 0c12.792055 0 13.840844 12.394786 13.840844 12.394786l0 323.122533c0 82.425326 69.537927 83.251645 77.260832 83.251645 10.408442 0 75.624084 0 75.624084-82.266418L910.571819 282.66468 910.667163 282.66468zM910.667163 282.66468" fill="#1aaba8" p-id="4780"></path></svg>