<?xml version="1.0" standalone="no"?><!DOCTYPE svg PUBLIC "-//W3C//DTD SVG 1.1//EN" "http://www.w3.org/Graphics/SVG/1.1/DTD/svg11.dtd"><svg t="1612264200905" class="icon" viewBox="0 0 1024 1024" version="1.1" xmlns="http://www.w3.org/2000/svg" p-id="5564" xmlns:xlink="http://www.w3.org/1999/xlink" width="32" height="32"><defs><style type="text/css"></style></defs><path d="M512 512m-448.35 0a448.35 448.35 0 1 0 896.7 0 448.35 448.35 0 1 0-896.7 0Z" fill="#F966D4" p-id="5565"></path><path d="M438 504h104.35v-36.51h-78.77c-17.29-1.28-26.25-11.49-27.53-29.49 1.28-17.29 10.24-26.26 27.53-27.54h78.77V374h-98c-17.29-1.28-26.25-11.53-27.53-30.1 2.56-17.29 12.8-26.25 29.45-27.54h96.06v-23.69c1.28-15.37 11.53-24.33 29.46-25.61 18.57 0 28.17 7.68 30.1 23.69v25.61h125.53c15.37 1.29 24.33 10.89 25.61 27.54-1.28 18.57-10.24 28.18-25.61 30.1H601.91v36.5h104.38c12.8 1.28 19.85 10.89 21.13 27.54-1.28 18.57-8.33 28.17-21.13 29.45H601.91V504h104.38q45.13 0 42.26 36.5c2.56 89.65-15.37 129.35-55.07 119.11-18.57 0-36.5-1.92-53.15-6.41-12.81-4.48-17.93-14.73-14.73-32 4.48-14.08 13.45-20.49 27.54-19.21 21.13 5.77 33.3 3.2 36.5-6.4 1.28-5.76 1.92-14.09 1.92-25.62 0-5.76-3.2-8.32-8.33-8.32h-80.68v112.69c-1.28 15.36-11.55 24.33-30.1 25.66-18.57-1.28-28.18-10.25-30.1-25.61V561.63h-106.3c-15.37-1.28-24.34-11.53-25.62-30.1 1.28-16.65 10.89-26.25 27.54-27.53zM297.73 342l-1.92-1.92c-14.09-14.09-16-28.82-4.49-44.83 11.53-12.81 25.62-14.09 42.27-4.48a249.82 249.82 0 0 1 59.55 46.75c12.81 25.61 4.49 42.26-25.61 51.23-9.61 0.64-32.66-15.37-69.8-46.75z" fill="#FFFFFF" p-id="5566"></path><path d="M730 703.79c18.57 1.28 29.46 9.61 32 23.7 0 18.57-9 28.17-27.54 29.45H543c-73.64 0-130-14.08-168.42-42.9a72.33 72.33 0 0 0-17.29-8.33q-6.72-4.8-40.34 36.51c-12.81 14.08-27.54 16-44.83 6.4q-19.22-15.37-1.92-38.42c8.32-10.25 16.65-19.85 25.62-30.1 22.41-24.34 33.29-41.63 32-53.15V511.68c0-4.48-1.92-6.4-6.4-6.4h-27.54c-16-0.64-23.69-10.89-23.69-28.82 2.56-17.29 12.17-26.26 27.54-27.54h55.71c24.33-1.28 35.22 11.53 33.94 38.43V634c7 45.47 64.68 68.52 172.26 70.44l170.36-0.65z" fill="#FFFFFF" p-id="5567"></path></svg>