<?xml version="1.0" standalone="no"?><!DOCTYPE svg PUBLIC "-//W3C//DTD SVG 1.1//EN" "http://www.w3.org/Graphics/SVG/1.1/DTD/svg11.dtd"><svg t="1611217980888" class="icon" viewBox="0 0 1024 1024" version="1.1" xmlns="http://www.w3.org/2000/svg" p-id="5679" width="32" height="32" xmlns:xlink="http://www.w3.org/1999/xlink"><defs><style type="text/css"></style></defs><path d="M512 128c298.24 0 447.573333 360.533333 236.672 571.434667l-168.234667 168.234666a96.768 96.768 0 0 1-136.874666 0l-168.234667-168.234666C64.469333 488.533333 213.76 128 512.042667 128z m0 64c-241.194667 0-361.984 291.584-191.402667 462.165333l168.234667 168.234667c12.8 12.8 33.536 12.8 46.336 0l168.234667-168.234667C873.984 483.584 753.194667 192 512 192z m0 157.269333a114.048 114.048 0 1 1 0 228.096 114.048 114.048 0 0 1 0-228.096z m0 64a50.048 50.048 0 1 0 0 100.096 50.048 50.048 0 0 0 0-100.096z" fill="#000000" p-id="5680"></path></svg>