<?xml version="1.0" standalone="no"?><!DOCTYPE svg PUBLIC "-//W3C//DTD SVG 1.1//EN" "http://www.w3.org/Graphics/SVG/1.1/DTD/svg11.dtd"><svg t="1612277714484" class="icon" viewBox="0 0 1024 1024" version="1.1" xmlns="http://www.w3.org/2000/svg" p-id="7500" xmlns:xlink="http://www.w3.org/1999/xlink" width="32" height="32"><defs><style type="text/css"></style></defs><path d="M621.034 712.463c1.863-1.156 22.295-13.942 28.27-17.54 11.052-6.683 20.175-11.694 29.299-15.806 64.122-29.17 120.663-8.546 195.451 78.836 46.261 54.1 59.946 102.095 42.085 144.821-13.3 31.933-38.936 53.971-84.555 81.214-2.955 1.734-29.234 17.026-35.98 21.203-106.207 65.536-349.654-84.49-524.738-340.852C95.332 407.335 49.906 133.305 157.527 66.805l14.2-8.995 15.42-10.023c54.42-35.21 89.245-49.28 130.558-42.277 41.25 7.067 76.33 37.586 106.014 93.163 62.58 117.58 48.767 173.35-31.74 224.044-5.782 3.726-26.343 16.127-28.27 17.347-19.725 12.208 13.685 94 91.365 207.724 78.643 115.01 144.372 177.91 165.896 164.675z" p-id="7501" fill="#096dd9"></path></svg>