<?xml version="1.0" standalone="no"?><!DOCTYPE svg PUBLIC "-//W3C//DTD SVG 1.1//EN" "http://www.w3.org/Graphics/SVG/1.1/DTD/svg11.dtd"><svg t="1611199219300" class="icon" viewBox="0 0 1024 1024" version="1.1" xmlns="http://www.w3.org/2000/svg" p-id="4962" xmlns:xlink="http://www.w3.org/1999/xlink" width="32" height="32"><defs><style type="text/css"></style></defs><path d="M811.7 798c71.5-74.4 115.6-175.1 115.6-286.4 0-228.8-185.8-414.3-415-414.3s-415 185.4-415 414.3c0 226.6 182.3 410.4 408.4 414l-0.3 0.3H803c0.3-0.1 61.9 0.8 86.6 1.2 4.3 0.1 6.9-4.7 4.5-8.2-15.6-23.4-60.1-90.4-82.4-120.9z m-295.6-16.8c-33.9 0-59.8-23.2-59.8-58.4s25.9-57.8 59.8-57.8 60.4 22.6 60.4 57.8c0 35.1-26.5 58.4-60.4 58.4z m33.2-169.4h-67.7c-18-109.6 111.5-137.5 111.5-209.8 0-39.8-24.6-67.7-73-67.7-35.2 0-66.4 16.6-96.3 49.1L380 342.9c38.5-42.5 85.7-71.7 148.7-71.7 82.3 0 138.1 45.8 138.1 124.8 0 100.9-131.4 118.2-117.5 215.8z" p-id="4963" fill="#707070"></path></svg>