<?xml version="1.0" standalone="no"?><!DOCTYPE svg PUBLIC "-//W3C//DTD SVG 1.1//EN" "http://www.w3.org/Graphics/SVG/1.1/DTD/svg11.dtd"><svg t="1612296805358" class="icon" viewBox="0 0 1024 1024" version="1.1" xmlns="http://www.w3.org/2000/svg" p-id="9792" xmlns:xlink="http://www.w3.org/1999/xlink" width="32" height="32"><defs><style type="text/css"></style></defs><path d="M783.179045 535.698286a388.827429 388.827429 0 0 0-226.567315 72.850285v-145.086171h239.030857a11.585829 11.585829 0 0 0 9.303772-18.549029L489.174016 4.681143a12.112457 12.112457 0 0 0-19.104914 0L152.043959 444.913371a11.556571 11.556571 0 1 0 11.556571 18.549029h228.205715v446.288457c0 2.048 0.4096 3.861943 0.585142 5.792914-0.087771 3.861943-0.585143 7.636114-0.585142 11.527315a82.388114 82.388114 0 1 0 164.805485 0c0-124.928 101.639314-226.567314 226.567315-226.567315a82.417371 82.417371 0 0 0 0-164.805485" p-id="9793" fill="#ffffff"></path></svg>